<svg width="1222" height="809" xmlns="http://www.w3.org/2000/svg" xmlns:xlink="http://www.w3.org/1999/xlink" xml:space="preserve" overflow="hidden"><defs><clipPath id="clip0"><rect x="1589" y="833" width="1222" height="809"/></clipPath></defs><g clip-path="url(#clip0)" transform="translate(-1589 -833)"><path d="M1714.3 1218 1801.7 1218C1805.17 1218 1808.24 1215.75 1809.28 1212.45L1926.81 839.303C1927.64 836.675 1925.67 834 1922.91 834L1832.46 834C1830.63 834 1829.03 835.212 1828.53 836.967L1759.1 1081.19C1758.78 1082.29 1757.22 1082.29 1756.91 1081.19L1687.47 836.967C1686.98 835.212 1685.37 834 1683.54 834L1593.1 834C1590.33 834 1588.36 836.675 1589.19 839.303L1706.72 1212.45C1707.76 1215.75 1710.83 1218 1714.3 1218Z" fill="#F7FDF4" fill-rule="evenodd"/><path d="M2073.54 839.549C2072.48 836.247 2069.37 834 2065.84 834L1977.16 834C1973.63 834 1970.52 836.247 1969.46 839.549L1850.19 1212.7C1849.35 1215.33 1851.35 1218 1854.15 1218L1943.87 1218C1945.73 1218 1947.36 1216.79 1947.87 1215.03L1967.39 1147.08 2075.61 1147.08 2095.13 1215.03C2095.64 1216.79 2097.27 1218 2099.13 1218L2188.85 1218C2191.65 1218 2193.65 1215.33 2192.81 1212.7L2073.54 839.549ZM1988.52 1073.52 2020.39 964.639C2020.71 963.538 2022.29 963.538 2022.61 964.639L2054.48 1073.52 1988.52 1073.52Z" fill="#F7FDF4" fill-rule="evenodd"/><path d="M2413.73 1070.81C2438.37 1063.1 2491.19 1039.25 2491.19 950.893 2491.19 862.533 2408.8 834 2352.47 834L2211.17 834C2208.31 834 2206 836.305 2206 839.15L2206 1215.85C2206 1218.7 2208.31 1221 2211.17 1221L2290.26 1221C2293.11 1221 2295.43 1218.7 2295.43 1215.85L2295.43 1084.13 2315.85 1084.13 2390.57 1213.69C2392.26 1216.62 2395.4 1218.42 2398.79 1218.42L2486.64 1218.42C2491.5 1218.42 2494.56 1213.21 2492.17 1208.99L2413.73 1070.81ZM2396.13 964.919C2396.13 987.383 2377.84 1005.59 2355.28 1005.59L2295.43 1005.59 2295.43 924.247 2355.28 924.247C2377.84 924.247 2396.13 942.457 2396.13 964.921L2396.13 964.921Z" fill="#F7FDF4" fill-rule="evenodd"/><path d="M2484.45 1257 2403.91 1257C2401.39 1257 2399.36 1259.04 2399.36 1261.56L2399.36 1496.56C2399.36 1525.95 2375.34 1550.72 2345.99 1550.16 2317.54 1549.62 2294.65 1526.36 2294.65 1497.74L2294.65 1261.56C2294.65 1259.04 2292.61 1257 2290.1 1257L2209.55 1257C2207.04 1257 2205 1259.04 2205 1261.56L2205 1503.92C2205 1598.56 2268.58 1642 2347 1642L2347 1642C2425.42 1642 2489 1593.65 2489 1503.92L2489 1261.56C2489 1259.04 2486.96 1257 2484.45 1257Z" fill="#F7FDF4" fill-rule="evenodd"/><path d="M2174.48 1544.53 2034.84 1544.53C2031.54 1544.53 2028.86 1541.86 2028.86 1538.57L2028.86 1260.51C2028.86 1258.57 2027.29 1257 2025.34 1257L1939.52 1257C1937.57 1257 1936 1258.57 1936 1260.51L1936 1631.49C1936 1633.43 1937.57 1635 1939.52 1635L2174.48 1635C2176.43 1635 2178 1633.43 2178 1631.49L2178 1548.04C2178 1546.1 2176.43 1544.53 2174.48 1544.53Z" fill="#F7FDF4" fill-rule="evenodd"/><path d="M1759.5 1253 1759.5 1253C1675.83 1253 1608 1312.53 1608 1391.04L1608 1503.96C1608 1598.57 1675.83 1642 1759.5 1642L1759.5 1642C1843.17 1642 1911 1593.67 1911 1503.96L1911 1488.49C1911 1485.4 1908.48 1482.89 1905.38 1482.89L1824.26 1482.89C1821.26 1482.89 1818.79 1485.24 1818.65 1488.22 1816.74 1529.97 1802.13 1552.34 1759.5 1552.34L1759.5 1552.34C1721.13 1552.34 1700.12 1528.93 1700.12 1477.93L1700.12 1417.06C1700.12 1374.74 1715.5 1342.66 1759.5 1342.66L1759.5 1342.66C1802.27 1342.66 1815.91 1368 1818.42 1403.34 1818.63 1406.28 1821.07 1408.56 1824.02 1408.56L1905.37 1408.56C1908.48 1408.56 1911 1406.05 1911 1402.96L1911 1391.04C1911 1312.53 1843.17 1253 1759.5 1253Z" fill="#F7FDF4" fill-rule="evenodd"/><path d="M2762.92 1439.13C2761.35 1438.14 2761.2 1435.96 2762.55 1434.69 2794.67 1404.66 2803.47 1362.31 2785.72 1317.31 2767.47 1271.03 2722.53 1257 2674.07 1257L2524.86 1257C2522.73 1257 2521 1258.73 2521 1260.86L2521 1631.14C2521 1633.27 2522.73 1635 2524.86 1635L2683.9 1635C2772.38 1635 2811 1581 2811 1522.79 2811 1473.4 2774.1 1446.23 2762.92 1439.13ZM2611.58 1347.47C2611.58 1345.53 2613.15 1343.96 2615.09 1343.96L2671.97 1343.96C2690 1343.96 2704.62 1358.56 2704.62 1376.57 2704.62 1394.58 2690 1409.18 2671.97 1409.18L2615.09 1409.18C2613.15 1409.18 2611.58 1407.61 2611.58 1405.68L2611.58 1347.47ZM2716.21 1516.83C2716.21 1534.07 2702.22 1548.04 2684.96 1548.04L2615.09 1548.04C2613.15 1548.04 2611.58 1546.47 2611.58 1544.53L2611.58 1489.13C2611.58 1487.19 2613.15 1485.62 2615.09 1485.62L2684.96 1485.62C2702.22 1485.62 2716.21 1499.6 2716.21 1516.83L2716.21 1516.83Z" fill="#F7FDF4" fill-rule="evenodd"/><path d="M2772.75 833 2531.25 833C2526.69 833 2523 836.689 2523 841.239L2523 1210.76C2523 1215.31 2526.69 1219 2531.25 1219L2772.75 1219C2777.31 1219 2781 1215.31 2781 1210.76L2781 841.239C2781 836.689 2777.31 833 2772.75 833ZM2609.75 849.478 2694.26 849.478 2694.26 882.04 2609.75 882.04 2609.75 849.478ZM2597.37 849.478 2597.37 888.219C2597.37 891.632 2600.14 894.398 2603.56 894.398L2700.44 894.398C2703.86 894.398 2706.63 891.632 2706.63 888.219L2706.63 849.478 2764.5 849.478 2764.5 1019.82 2728.25 1019.82C2725.1 980.503 2692.18 949.572 2652 949.572 2611.82 949.572 2578.9 980.503 2575.75 1019.82L2539.5 1019.82 2539.5 849.478 2597.37 849.478ZM2708.51 1051.24C2708.51 1051.24 2705.35 1041.08 2678.68 1041.08L2678.68 1010.92C2705.35 1010.92 2708.51 1000.76 2708.51 1000.76 2713.78 1009.87 2713.08 1026 2713.08 1026 2713.08 1026 2713.78 1042.13 2708.51 1051.24ZM2667.09 999.356 2636.91 999.356C2636.91 972.711 2626.73 969.555 2626.73 969.555 2635.85 964.297 2652 964.997 2652 964.997 2652 964.997 2668.15 964.297 2677.27 969.555 2677.27 969.555 2667.09 972.711 2667.09 999.356ZM2677.27 1082.44C2668.15 1087.7 2652 1087 2652 1087 2652 1087 2635.85 1087.7 2626.73 1082.44 2626.73 1082.44 2636.91 1079.29 2636.91 1052.64L2667.09 1052.64C2667.09 1079.29 2677.27 1082.44 2677.27 1082.44ZM2595.49 1000.76C2595.49 1000.76 2598.65 1010.92 2625.32 1010.92L2625.32 1041.08C2598.65 1041.08 2595.49 1051.24 2595.49 1051.24 2590.22 1042.13 2590.92 1026 2590.92 1026 2590.92 1026 2590.22 1009.87 2595.49 1000.76ZM2694.25 1202.52 2609.74 1202.52 2609.74 1169.96 2694.25 1169.96 2694.25 1202.52ZM2706.63 1202.52 2706.63 1163.78C2706.63 1160.37 2703.86 1157.6 2700.44 1157.6L2603.56 1157.6C2600.14 1157.6 2597.37 1160.37 2597.37 1163.78L2597.37 1202.52 2539.5 1202.52 2539.5 1032.18 2575.75 1032.18C2578.9 1071.5 2611.82 1102.43 2652 1102.43 2692.18 1102.43 2725.1 1071.5 2728.25 1032.18L2764.5 1032.18 2764.5 1202.52 2706.63 1202.52Z" fill="#F0B429" fill-rule="evenodd"/></g></svg>